<svg width="64" height="64" viewBox="0 0 64 64" fill="none" xmlns="http://www.w3.org/2000/svg">
    <path
        d="M32.32 34.08C32.1333 34.0533 31.8933 34.0533 31.68 34.08C26.9867 33.92 23.2533 30.08 23.2533 25.3599C23.2533 20.5333 27.1467 16.6133 32 16.6133C36.8267 16.6133 40.7467 20.5333 40.7467 25.3599C40.72 30.08 37.0133 33.92 32.32 34.08Z"
        stroke="black" stroke-width="4" stroke-linecap="round" stroke-linejoin="round" />
    <path
        d="M49.9733 51.6803C45.2267 56.0269 38.9333 58.6669 32 58.6669C25.0667 58.6669 18.7734 56.0269 14.0267 51.6803C14.2934 49.1736 15.8934 46.7203 18.7467 44.8003C26.0534 39.9469 38 39.9469 45.2533 44.8003C48.1067 46.7203 49.7067 49.1736 49.9733 51.6803Z"
        stroke="black" stroke-width="4" stroke-linecap="round" stroke-linejoin="round" />
    <path
        d="M32 58.6667C46.7275 58.6667 58.6667 46.7275 58.6667 32C58.6667 17.2724 46.7275 5.33337 32 5.33337C17.2724 5.33337 5.33333 17.2724 5.33333 32C5.33333 46.7275 17.2724 58.6667 32 58.6667Z"
        stroke="black" stroke-width="4" stroke-linecap="round" stroke-linejoin="round" />
</svg>