<svg width="60" height="60" viewBox="0 0 60 60" fill="none" xmlns="http://www.w3.org/2000/svg">
<g clip-path="url(#clip0_17_32)">
<path d="M15 51.875C13.1772 51.873 11.4297 51.148 10.1408 49.8592C8.85195 48.5703 8.12699 46.8228 8.125 45V20C8.12765 18.2858 8.76971 16.6342 9.9256 15.3682C11.0815 14.1023 12.6681 13.3131 14.375 13.155V10C14.375 9.50272 14.5725 9.02581 14.9242 8.67417C15.2758 8.32254 15.7527 8.125 16.25 8.125C16.7473 8.125 17.2242 8.32254 17.5758 8.67417C17.9275 9.02581 18.125 9.50272 18.125 10V13.125H41.875V10C41.875 9.50272 42.0725 9.02581 42.4242 8.67417C42.7758 8.32254 43.2527 8.125 43.75 8.125C44.2473 8.125 44.7242 8.32254 45.0758 8.67417C45.4275 9.02581 45.625 9.50272 45.625 10V13.155C47.3322 13.3126 48.9191 14.1016 50.0751 15.3676C51.231 16.6337 51.8729 18.2856 51.875 20V45C51.8737 46.823 51.1489 48.5709 49.8599 49.8599C48.5709 51.1489 46.823 51.8737 45 51.875H15ZM11.875 20V45C11.8757 45.8286 12.2051 46.6231 12.791 47.209C13.3769 47.7949 14.1714 48.1243 15 48.125H45C45.8286 48.1243 46.6231 47.7949 47.209 47.209C47.7949 46.6231 48.1243 45.8286 48.125 45V20C48.1243 19.1714 47.7949 18.3769 47.209 17.791C46.6231 17.2051 45.8286 16.8757 45 16.875H15C14.1714 16.8757 13.3769 17.2051 12.791 17.791C12.2051 18.3769 11.8757 19.1714 11.875 20ZM28.125 40V34.375H22.5C22.0027 34.375 21.5258 34.1775 21.1742 33.8258C20.8225 33.4742 20.625 32.9973 20.625 32.5C20.625 32.0027 20.8225 31.5258 21.1742 31.1742C21.5258 30.8225 22.0027 30.625 22.5 30.625H28.125V25C28.125 24.5027 28.3225 24.0258 28.6742 23.6742C29.0258 23.3225 29.5027 23.125 30 23.125C30.4973 23.125 30.9742 23.3225 31.3258 23.6742C31.6775 24.0258 31.875 24.5027 31.875 25V30.625H37.5C37.9973 30.625 38.4742 30.8225 38.8258 31.1742C39.1775 31.5258 39.375 32.0027 39.375 32.5C39.375 32.9973 39.1775 33.4742 38.8258 33.8258C38.4742 34.1775 37.9973 34.375 37.5 34.375H31.875V40C31.875 40.4973 31.6775 40.9742 31.3258 41.3258C30.9742 41.6775 30.4973 41.875 30 41.875C29.5027 41.875 29.0258 41.6775 28.6742 41.3258C28.3225 40.9742 28.125 40.4973 28.125 40Z" fill="#FF9D00"/>
</g>
<defs>
<clipPath id="clip0_17_32">
<rect width="60" height="60" fill="white"/>
</clipPath>
</defs>
</svg>
