<svg width="64" height="64" viewBox="0 0 64 64" fill="none" xmlns="http://www.w3.org/2000/svg">
    <path
        d="M21.3333 16.0018L56 16.0037M21.3333 32.0019L56 32.004M21.3333 48.0019L56 48.004M9.33333 16H9.36M9.33333 32H9.36M9.33333 48H9.36M10.6667 16C10.6667 16.7364 10.0697 17.3334 9.33333 17.3334C8.59696 17.3334 8 16.7364 8 16C8 15.2636 8.59696 14.6667 9.33333 14.6667C10.0697 14.6667 10.6667 15.2636 10.6667 16ZM10.6667 32C10.6667 32.7363 10.0697 33.3334 9.33333 33.3334C8.59696 33.3334 8 32.7363 8 32C8 31.2638 8.59696 30.6667 9.33333 30.6667C10.0697 30.6667 10.6667 31.2638 10.6667 32ZM10.6667 48C10.6667 48.7363 10.0697 49.3334 9.33333 49.3334C8.59696 49.3334 8 48.7363 8 48C8 47.2638 8.59696 46.6667 9.33333 46.6667C10.0697 46.6667 10.6667 47.2638 10.6667 48Z"
        stroke="black" stroke-width="5.33333" stroke-linecap="round" stroke-linejoin="round" />
</svg>