<svg width="51" height="51" viewBox="0 0 51 51" fill="none" xmlns="http://www.w3.org/2000/svg">
<path d="M23.375 17C23.375 15.8264 24.3264 14.875 25.5 14.875C26.6736 14.875 27.625 15.8264 27.625 17V23.375H34C35.1736 23.375 36.125 24.3264 36.125 25.5C36.125 26.6736 35.1736 27.625 34 27.625H27.625V34C27.625 35.1736 26.6736 36.125 25.5 36.125C24.3264 36.125 23.375 35.1736 23.375 34V27.625H17C15.8264 27.625 14.875 26.6736 14.875 25.5C14.875 24.3264 15.8264 23.375 17 23.375H23.375V17Z" fill="#FF9D00"/>
<path fill-rule="evenodd" clip-rule="evenodd" d="M48.875 25.5C48.875 38.4096 38.4096 48.875 25.5 48.875C12.5903 48.875 2.125 38.4096 2.125 25.5C2.125 12.5903 12.5903 2.125 25.5 2.125C38.4096 2.125 48.875 12.5903 48.875 25.5ZM6.38951 25.5C6.38951 36.0545 14.9456 44.6105 25.5 44.6105C36.0545 44.6105 44.6105 36.0545 44.6105 25.5C44.6105 14.9456 36.0545 6.38951 25.5 6.38951C14.9456 6.38951 6.38951 14.9456 6.38951 25.5Z" fill="#FF9D00"/>
</svg>
