<svg width="64" height="64" viewBox="0 0 64 64" fill="none" xmlns="http://www.w3.org/2000/svg">
    <path
        d="M31.9733 5.33337C17.2533 5.33337 5.33333 17.28 5.33333 32C5.33333 46.72 17.2533 58.6667 31.9733 58.6667C46.72 58.6667 58.6667 46.72 58.6667 32C58.6667 17.28 46.72 5.33337 31.9733 5.33337ZM32 53.3334C20.2133 53.3334 10.6667 43.7867 10.6667 32C10.6667 20.2134 20.2133 10.6667 32 10.6667C43.7867 10.6667 53.3333 20.2134 53.3333 32C53.3333 43.7867 43.7867 53.3334 32 53.3334ZM33.3333 18.6667H29.3333V34.6667L43.3333 43.0667L45.3333 39.7867L33.3333 32.6667V18.6667Z"
        fill="black" fill-opacity="0.9" />
</svg>